<svg width="720" height="880" viewBox="0 0 720 880" fill="none" xmlns="http://www.w3.org/2000/svg">
  <rect width="720" height="880" rx="32" fill="#111F2F"/>
  <rect x="80" y="96" width="560" height="688" rx="24" fill="url(#paint0_linear)"/>
  <path d="M362 246C323 246 295 278 295 317C295 356 323 388 362 388C401 388 429 356 429 317C429 278 401 246 362 246Z" fill="url(#paint1_radial)"/>
  <path d="M208 623C222 503 285 452 362 452C439 452 502 503 516 623C521 663 484 694 444 706C414 715 380 720 362 720C344 720 310 715 280 706C240 694 203 663 208 623Z" fill="url(#paint2_linear)"/>
  <defs>
    <linearGradient id="paint0_linear" x1="80" y1="96" x2="560" y2="784" gradientUnits="userSpaceOnUse">
      <stop stop-color="#1A2A3D"/>
      <stop offset="1" stop-color="#0C1B2A"/>
    </linearGradient>
    <radialGradient id="paint1_radial" cx="0" cy="0" r="1" gradientUnits="userSpaceOnUse" gradientTransform="translate(362 286) rotate(90) scale(102 112)">
      <stop stop-color="#E0B14C"/>
      <stop offset="1" stop-color="#2B3C4E"/>
    </radialGradient>
    <linearGradient id="paint2_linear" x1="208" y1="452" x2="516" y2="706" gradientUnits="userSpaceOnUse">
      <stop stop-color="#23364C"/>
      <stop offset="1" stop-color="#0C1B2A"/>
    </linearGradient>
  </defs>
</svg>
